<?xml version="1.0" encoding="UTF-8" standalone="no"?>
<!DOCTYPE svg PUBLIC "-//W3C//DTD SVG 1.1//EN" "http://www.w3.org/Graphics/SVG/1.1/DTD/svg11.dtd">
<svg width="100%" height="100%" viewBox="0 0 459 118" version="1.1" xmlns="http://www.w3.org/2000/svg" xmlns:xlink="http://www.w3.org/1999/xlink" xml:space="preserve" xmlns:serif="http://www.serif.com/" style="fill-rule:evenodd;clip-rule:evenodd;stroke-linejoin:round;stroke-miterlimit:2;">
    <g transform="matrix(1,0,0,1,-6225.539581,-1181.06648)">
        <g transform="matrix(0.731337,0,0,0.713353,1588.48764,200.631993)">
            <g transform="matrix(3.016076,0,0,4.652706,-713.402309,-4051.527213)">
                <g id="Capa-1" serif:id="Capa 1" transform="matrix(1.253342,0,0,0.83295,2338.773627,1166.18808)">
                    <g transform="matrix(0.99465,-0.103305,-0.103305,-0.99465,61.385709,34.855285)">
                        <path d="M-1.794,-0.093C-2.568,0.103 -4.348,0.737 -5.274,1.146L-1.794,34.649L1.779,34.278L-1.794,-0.093Z" style="fill:rgb(235,235,235);fill-rule:nonzero;"/>
                    </g>
                    <g transform="matrix(1,0,0,1,22.9881,32.5202)">
                        <path d="M0,-23.559C-2.282,-28.806 -5.8,-31.488 -10.934,-31.488C-15.098,-31.488 -18.938,-27.495 -18.938,-21.448C-18.938,-17.683 -15.858,-15.231 -9.868,-14.147C-1.369,-12.607 1.864,-8.785 1.864,-2.91C1.864,4.164 -2.186,8.898 -10.058,8.898C-17.103,8.898 -21.253,5.797 -22.703,-0.228C-22.745,-0.22 -22.969,-1.668 -22.988,-1.825L-22.755,-1.971L-22.532,-2.11C-21.733,4.564 -17.473,7.986 -10.058,7.986C-4.525,7.986 -1.121,3.708 -1.121,-2.738C-1.121,-6.674 -4.05,-9.355 -10.838,-10.553C-18.596,-11.979 -22.589,-15.515 -22.589,-21.049C-22.589,-27.894 -17.265,-32.457 -10.934,-32.457C-5.885,-32.457 -2.414,-29.765 0.11,-24.583L0.114,-24.585C0.206,-24.373 0.309,-24.172 0.399,-23.958L0,-23.559Z" style="fill:rgb(235,235,235);fill-rule:nonzero;"/>
                    </g>
                    <g transform="matrix(1,0,0,1,0,-1.153)">
                        <rect x="31.658" y="1.729" width="3.593" height="40.33" style="fill:rgb(235,235,235);"/>
                    </g>
                    <g transform="matrix(1,0,0,1,64.905,4.9076)">
                        <path d="M0,33.396C0,35.978 -2.019,37.727 -5.049,37.727C-8.87,37.727 -13.99,35.02 -17.813,35.02C-19.688,35.02 -20.986,36.103 -20.986,37.685L-21.491,37.685C-21.491,36.904 -21.33,36.201 -21.038,35.593L-21.038,-4.331L-17.445,-4.331L-17.445,33.23C-17.214,33.205 -16.978,33.188 -16.732,33.188C-12.91,33.188 -7.791,35.895 -3.968,35.895C-1.876,35.895 -0.506,34.895 -0.506,33.396L0,33.396Z" style="fill:rgb(235,235,235);fill-rule:nonzero;"/>
                    </g>
                    <g transform="matrix(1,0,0,1,142.2703,40.5063)">
                        <path d="M0,-39.531L11.694,-39.531C16.77,-39.531 19.395,-35.538 19.395,-27.837C19.395,-21.734 16.77,-18.596 11.694,-18.596L11.694,-18.597L0,-18.597L0,-39.531ZM23.73,0.399C23.71,0.379 23.616,0.142 23.616,0.113L23.582,0.113L14.276,-17.828C19.994,-18.633 22.932,-22.237 22.932,-27.837C22.932,-35.823 19.109,-39.93 11.694,-39.93L-3.593,-39.93L-3.593,0.399L0,0.399L0,-17.655L10.26,-17.655L19.68,0.399L23.73,0.399Z" style="fill:rgb(235,235,235);fill-rule:nonzero;"/>
                    </g>
                    <g transform="matrix(1,0,0,1,112.8418,1.4355)">
                        <path d="M0,38.613L0,21.16C0,19.824 0.144,19.664 0.144,19.664C0.552,18.839 1.504,18.155 2.762,18.155C6.124,18.155 10.628,20.535 13.99,20.535C16.65,20.535 18.426,19.001 18.426,16.727L17.984,16.727C17.984,18.045 16.778,18.924 14.937,18.924C11.576,18.924 7.076,16.545 3.714,16.545C1.98,16.545 0.663,17.284 0,18.508L0,-0.003L19.395,-0.003L19.395,-0.858L-3.591,-0.858L-3.591,39.471L20.249,39.471L20.249,38.613L0,38.613Z" style="fill:rgb(235,235,235);fill-rule:nonzero;"/>
                    </g>
                    <g transform="matrix(1,0,0,1,102.222,31.2089)">
                        <path d="M0,-21.065C-0.102,-21.52 -0.234,-21.957 -0.387,-22.387C-0.391,-22.395 -0.395,-22.399 -0.395,-22.404C-2.312,-27.762 -8.036,-31.209 -15.299,-31.209C-26.649,-31.209 -34.18,-21.685 -34.18,-10.56C-34.18,0.617 -26.649,10.144 -15.299,10.144C-6.685,10.144 -0.582,6.039 0.047,-0.178L-0.293,-0.178C-1.177,5.754 -6.855,9.29 -15.299,9.29C-24.308,9.29 -30.355,0.162 -30.355,-10.56C-30.355,-12.476 -30.16,-14.342 -29.79,-16.114C-29.722,-16.42 -29.654,-16.722 -29.577,-17.024C-27.89,-23.81 -23.547,-29.054 -17.619,-30.146C-17.135,-30.236 -16.642,-30.295 -16.136,-30.329C-16.042,-30.333 -15.953,-30.338 -15.86,-30.342C-15.673,-30.35 -15.486,-30.355 -15.299,-30.355C-15.15,-30.355 -15.001,-30.355 -14.852,-30.35C-14.776,-30.35 -14.704,-30.346 -14.631,-30.346C-14.581,-30.342 -14.529,-30.342 -14.479,-30.338C-7.713,-30.1 -2.452,-26.895 -0.705,-22.025C-0.5,-21.629 -0.229,-19.697 -0.229,-19.697L0.165,-19.697C0.202,-20.044 0,-21.065 0,-21.065" style="fill:rgb(235,235,235);fill-rule:nonzero;"/>
                    </g>
                </g>
            </g>
        </g>
    </g>
</svg>
